<svg version="1.1" xmlns="http://www.w3.org/2000/svg" xmlns:xlink="http://www.w3.org/1999/xlink" viewBox="0 0 172 172"><g fill="none" fill-rule="nonzero" stroke="none" stroke-width="1" stroke-linecap="butt" stroke-linejoin="miter" stroke-miterlimit="10" stroke-dasharray="" stroke-dashoffset="0" font-family="none" font-weight="none" font-size="none" text-anchor="none" style="mix-blend-mode: normal"><path d="M0,172v-172h172v172z" fill="none"></path><g fill="#ffffff"><path d="M49.45,21.5c-15.41016,0 -27.95,12.53984 -27.95,27.95v73.1c0,15.41016 12.53984,27.95 27.95,27.95h73.1c15.41016,0 27.95,-12.53984 27.95,-27.95v-3.93887c0.03838,-0.23218 0.03838,-0.46909 0,-0.70127v-31.54873c0.03838,-0.23218 0.03838,-0.46909 0,-0.70127v-31.54873c0.03838,-0.23218 0.03838,-0.46909 0,-0.70127v-3.95986c0,-15.41016 -12.53984,-27.95 -27.95,-27.95zM49.45,25.8h73.1c13.08594,0 23.65,10.56406 23.65,23.65v2.15h-17.2c-0.77537,-0.01097 -1.49657,0.39641 -1.88746,1.06613c-0.39088,0.66972 -0.39088,1.49803 0,2.16775c0.39088,0.66972 1.11209,1.07709 1.88746,1.06613h17.2v27.95h-17.2c-0.77537,-0.01097 -1.49657,0.39641 -1.88746,1.06613c-0.39088,0.66972 -0.39088,1.49803 0,2.16775c0.39088,0.66972 1.11209,1.07709 1.88746,1.06613h17.2v27.95h-17.2c-0.77537,-0.01097 -1.49657,0.39641 -1.88746,1.06613c-0.39088,0.66972 -0.39088,1.49803 0,2.16775c0.39088,0.66972 1.11209,1.07709 1.88746,1.06613h17.2v2.15c0,13.08594 -10.56406,23.65 -23.65,23.65h-73.1c-13.08594,0 -23.65,-10.56406 -23.65,-23.65v-73.1c0,-13.08594 10.56406,-23.65 23.65,-23.65zM129,30.1c-1.18741,0 -2.15,0.96259 -2.15,2.15c0,1.18741 0.96259,2.15 2.15,2.15c1.18741,0 2.15,-0.96259 2.15,-2.15c0,-1.18741 -0.96259,-2.15 -2.15,-2.15zM129,40.85c-1.18741,0 -2.15,0.96259 -2.15,2.15c0,1.18741 0.96259,2.15 2.15,2.15c1.18741,0 2.15,-0.96259 2.15,-2.15c0,-1.18741 -0.96259,-2.15 -2.15,-2.15zM76.325,46.225c-21.94167,0 -39.775,17.83334 -39.775,39.775c0,21.94166 17.83333,39.775 39.775,39.775c21.94167,0 39.775,-17.83334 39.775,-39.775c0,-21.94166 -17.83333,-39.775 -39.775,-39.775zM76.325,50.525c19.61778,0 35.475,15.85723 35.475,35.475c0,19.61777 -15.85722,35.475 -35.475,35.475c-19.61778,0 -35.475,-15.85723 -35.475,-35.475c0,-19.61777 15.85722,-35.475 35.475,-35.475zM76.325,62.35c-8.88013,0 -16.125,7.24488 -16.125,16.125c0,8.88012 7.24487,16.125 16.125,16.125c8.88013,0 16.125,-7.24488 16.125,-16.125c0,-8.88012 -7.24487,-16.125 -16.125,-16.125zM129,62.35c-1.18741,0 -2.15,0.96259 -2.15,2.15c0,1.18741 0.96259,2.15 2.15,2.15c1.18741,0 2.15,-0.96259 2.15,-2.15c0,-1.18741 -0.96259,-2.15 -2.15,-2.15zM76.325,66.65c6.55624,0 11.825,5.26876 11.825,11.825c0,6.55624 -5.26876,11.825 -11.825,11.825c-6.55624,0 -11.825,-5.26876 -11.825,-11.825c0,-6.55624 5.26876,-11.825 11.825,-11.825zM129,73.1c-1.18741,0 -2.15,0.96259 -2.15,2.15c0,1.18741 0.96259,2.15 2.15,2.15c1.18741,0 2.15,-0.96259 2.15,-2.15c0,-1.18741 -0.96259,-2.15 -2.15,-2.15zM129,94.6c-1.18741,0 -2.15,0.96259 -2.15,2.15c0,1.18741 0.96259,2.15 2.15,2.15c1.18741,0 2.15,-0.96259 2.15,-2.15c0,-1.18741 -0.96259,-2.15 -2.15,-2.15zM76.53916,98.9c-1.1825,-0.0215 -2.15,0.9465 -2.15,2.129c-0.0215,1.1825 0.92501,2.1495 2.12901,2.171h0.02099c1.1825,0 2.1285,-0.9465 2.15,-2.129c0,-1.204 -0.946,-2.171 -2.15,-2.171zM66.01172,101.31875c-0.2795,0.01881 -0.55967,0.09238 -0.82305,0.22676c-1.0535,0.5375 -1.48232,1.82716 -0.94482,2.88066c0.387,0.7525 1.13664,1.17998 1.91064,1.17998c0.3225,0 0.66902,-0.06316 0.97002,-0.23516c1.075,-0.5375 1.48182,-1.82716 0.96582,-2.88066c-0.40313,-0.79012 -1.24011,-1.22802 -2.07861,-1.17158zM87.03721,101.51191c-0.83044,-0.0776 -1.67196,0.33946 -2.09121,1.12959c-0.559,1.0535 -0.15067,2.34266 0.90283,2.90166c0.3225,0.172 0.66801,0.26035 1.01201,0.26035c0.7525,0 1.50265,-0.41119 1.88965,-1.14219c0.559,-1.0535 0.15067,-2.36366 -0.90283,-2.92266v0.021c-0.258,-0.13975 -0.53364,-0.22189 -0.81045,-0.24775zM129,105.35c-1.18741,0 -2.15,0.96259 -2.15,2.15c0,1.18741 0.96259,2.15 2.15,2.15c1.18741,0 2.15,-0.96259 2.15,-2.15c0,-1.18741 -0.96259,-2.15 -2.15,-2.15zM57.71826,108.24326c-0.54288,0.086 -1.05619,0.37524 -1.41094,0.84824c-0.688,0.9675 -0.47149,2.30134 0.47451,3.01084c0.387,0.2795 0.83816,0.40732 1.26816,0.40732c0.6665,0 1.33418,-0.30134 1.74268,-0.88184c0.688,-0.9675 0.49299,-2.30134 -0.47451,-3.01084c-0.48375,-0.344 -1.05703,-0.45973 -1.5999,-0.37373zM95.20889,108.5792c-0.54019,-0.09406 -1.11615,0.01713 -1.5999,0.36113c-0.989,0.6665 -1.2255,2.02234 -0.5375,2.98984c0.4085,0.602 1.07567,0.92383 1.76367,0.92383c0.43,0 0.86067,-0.12833 1.22617,-0.38633c0.989,-0.688 1.2255,-2.02184 0.5375,-3.01084c-0.344,-0.48375 -0.84976,-0.78357 -1.38994,-0.87764zM129,126.85c-1.18741,0 -2.15,0.96259 -2.15,2.15c0,1.18741 0.96259,2.15 2.15,2.15c1.18741,0 2.15,-0.96259 2.15,-2.15c0,-1.18741 -0.96259,-2.15 -2.15,-2.15zM129,137.6c-1.18741,0 -2.15,0.96259 -2.15,2.15c0,1.18741 0.96259,2.15 2.15,2.15c1.18741,0 2.15,-0.96259 2.15,-2.15c0,-1.18741 -0.96259,-2.15 -2.15,-2.15z"></path></g></g></svg>